A nine-year-old boy who has just received a phantom Eucharist, his horrified cousin, and his religious aunt are trapped in their home by a sadistic phantom force in director Benny Mathews´ unrelenting tale of supernatural terror. Despite the intention of the sacrament to keep the young child safe from the malevolent forces of evil, the powers of faith fail when young Ricky Banda and his two family members find themselves stalked by a dark entity intent on claiming their souls for the damned.

Credit to whoever found the original file :)

I think this is a low budget sorta flick, and it's been held up in the production rooms for quite some time :/

Tech Specs:

Video
ID                               : 0
Format                           : MPEG-4 Visual
Format profile                   : Advanced Simple@L5
Format settings, BVOP            : 1
Format settings, QPel            : No
Format settings, GMC             : No warppoints
Format settings, Matrix          : Default (H.263)
Muxing mode                      : Packed bitstream
Codec ID                         : XVID
Codec ID/Hint                    : XviD
Duration                         : 1h 21mn
Bit rate                         : 712 Kbps
Width                            : 608 pixels
Height                           : 320 pixels
Display aspect ratio             : 1.900
Frame rate                       : 23.976 fps
Color space                      : YUV
Chroma subsampling               : 4:2:0
Bit depth                        : 8 bits
Scan type                        : Progressive
Compression mode                 : Lossy
Bits/(Pixel*Frame)               : 0.153
Stream size                      : 417 MiB (85%)
Writing library                  : XviD 62

Audio
ID                               : 1
Format                           : MPEG Audio
Format version                   : Version 1
Format profile                   : Layer 3
Mode                             : Joint stereo
Codec ID                         : 55
Codec ID/Hint                    : MP3
Duration                         : 1h 21mn
Bit rate mode                    : Variable
Bit rate                         : 110 Kbps
Nominal bit rate                 : 128 Kbps
Channel(s)                       : 2 channels
Sampling rate                    : 48.0 KHz
Compression mode                 : Lossy
Stream size                      : 64.4 MiB (13%)
Alignment                        : Aligned on interleaves
Interleave, duration             : 24 ms (0.58 video frame)
Interleave, preload duration     : 663 ms
Writing library                  : LAME3.97 
Encoding settings                : -m j -V 4 -q 2 -lowpass 17 --abr 128

SCREENS:
 
http://imghunt.org/images/36759039419559712998.png 
http://imghunt.org/images/09821804664924276294.png


SEED AND ENJOY!!!